<svg xmlns="http://www.w3.org/2000/svg" viewBox="0 0 512 512">
  <rect width="512" height="512" rx="96" fill="#eef2ff"/>
  <circle cx="256" cy="256" r="150" fill="#f7f1d8" stroke="#20242c" stroke-width="12"/>
  <circle cx="218" cy="238" r="10" fill="#20242c"/>
  <circle cx="294" cy="238" r="10" fill="#20242c"/>
  <path d="M226 286c20 16 40 16 60 0" fill="none" stroke="#20242c" stroke-width="9" stroke-linecap="round"/>
  <path d="M112 128l12 26 28 4-20 20 5 28-25-13-25 13 5-28-20-20 28-4z" fill="#f0bd55"/>
  <path d="M390 352l9 20 22 3-16 15 4 22-19-10-19 10 4-22-16-15 22-3z" fill="#f0bd55"/>
</svg>

